<svg width="32" height="32" viewBox="0 0 32 32" fill="none" xmlns="http://www.w3.org/2000/svg">
<path d="M20.9497 22.364L9.63603 11.0503C9.24948 10.6637 9.24948 10.0226 9.63603 9.63604C10.0226 9.24949 10.6637 9.24949 11.0502 9.63604L22.364 20.9497C22.7505 21.3363 22.7505 21.9774 22.364 22.364C21.9774 22.7505 21.3363 22.7505 20.9497 22.364Z" fill="black"/>
<path d="M9.63605 22.364C9.24949 21.9774 9.24949 21.3363 9.63605 20.9497L20.9498 9.63604C21.3363 9.24949 21.9774 9.24949 22.364 9.63604C22.7505 10.0226 22.7505 10.6637 22.364 11.0503L11.0503 22.364C10.6637 22.7505 10.0226 22.7505 9.63605 22.364Z" fill="black"/>
</svg>
