<svg width="122" height="36" viewBox="0 0 122 36" fill="none" xmlns="http://www.w3.org/2000/svg">
<g clip-path="url(#clip0_40_36)">
<path d="M118.4 0.450012H4.09995C2.36025 0.450012 0.949951 1.86031 0.949951 3.60001V32.4C0.949951 34.1397 2.36025 35.55 4.09995 35.55H118.4C120.14 35.55 121.55 34.1397 121.55 32.4V3.60001C121.55 1.86031 120.14 0.450012 118.4 0.450012Z" fill="#FDFDFD" stroke="#EDEDED"/>
<path d="M96.107 13.6391C95.9648 13.7869 95.8918 13.9653 95.8918 14.174C95.8918 14.3828 95.9648 14.5633 96.107 14.7155C96.251 14.8677 96.4282 14.9438 96.6379 14.9438C96.8413 14.9438 97.0142 14.8677 97.1573 14.7155C97.2995 14.5633 97.3723 14.3828 97.3723 14.174C97.3723 13.9653 97.2995 13.7869 97.1573 13.6391C97.0142 13.4912 96.8413 13.4173 96.6379 13.4173C96.4282 13.4173 96.251 13.4912 96.107 13.6391Z" fill="#100F12"/>
<path fill-rule="evenodd" clip-rule="evenodd" d="M94.2215 20.3193H94.136C93.8903 20.3193 93.6572 20.2953 93.434 20.2475C93.2108 20.1997 93.0092 20.1018 92.8319 19.954C92.588 20.1975 92.2802 20.3193 91.9094 20.3193H86.8254C86.3627 20.3193 86.0171 20.1801 85.7894 19.9018C85.5607 19.6234 85.448 19.2277 85.448 18.7145V17.214H86.409V18.5579C86.409 18.8363 86.4649 19.0298 86.5797 19.1385C86.6925 19.2472 86.8759 19.3016 87.1288 19.3016H91.7069C91.9679 19.3016 92.1371 19.2407 92.2127 19.1189C92.2892 18.9972 92.3261 18.8112 92.3261 18.5579V17.214H93.3125V18.6101C93.3125 18.8797 93.3989 19.0623 93.5735 19.1581C93.7463 19.2538 93.9326 19.3016 94.136 19.3016L96.8666 19.3016C97.1699 19.3016 97.3661 19.2386 97.4552 19.1125C97.5434 18.9864 97.583 18.8363 97.5749 18.6624L96.3356 18.6232C95.9054 18.6059 95.594 18.458 95.3996 18.1796C95.2061 17.9012 95.1089 17.5447 95.1089 17.1097C95.1089 16.8749 95.1476 16.6585 95.2277 16.4574C95.3096 16.2573 95.4212 16.0833 95.5643 15.9355C95.7074 15.7876 95.8784 15.6723 96.0764 15.5897C96.2744 15.5071 96.4958 15.4658 96.7406 15.4658C97.0259 15.4658 97.2797 15.5277 97.4993 15.6484C97.718 15.7701 97.9016 15.9289 98.0492 16.1246C98.1968 16.3203 98.3075 16.5422 98.384 16.79C98.4605 17.038 98.4983 17.2924 98.4983 17.5533V18.2971C98.4983 18.5667 98.4686 18.8233 98.4092 19.0668C98.3498 19.3115 98.2589 19.5257 98.1374 19.7127C98.0159 19.9008 97.8602 20.0476 97.6757 20.1563C97.4903 20.265 97.2716 20.3194 97.0187 20.3194H94.2368L94.2215 20.3193ZM97.5056 17.2336C97.5515 17.3771 97.5749 17.5196 97.5749 17.6576L96.5381 17.6185C96.4031 17.6109 96.2663 17.5772 96.1268 17.5206C95.9882 17.4641 95.918 17.3445 95.918 17.1618C95.918 16.9705 95.9711 16.8095 96.0764 16.679C96.1817 16.5486 96.368 16.4834 96.638 16.4834C96.7829 16.4834 96.9107 16.5181 97.025 16.5878C97.1384 16.6584 97.2356 16.7465 97.3157 16.8552C97.3958 16.964 97.4588 17.0901 97.5056 17.2336Z" fill="#100F12"/>
<path d="M82.0326 20.3191H81.1094V13.965H82.0326V20.3191Z" fill="#100F12"/>
<path d="M78.5933 14.8526C78.4489 15.0005 78.3783 15.1787 78.3783 15.3875C78.3783 15.5963 78.4489 15.7767 78.5933 15.929C78.7366 16.0812 78.9136 16.1573 79.1244 16.1573C79.3268 16.1573 79.4985 16.0812 79.6429 15.929C79.7863 15.7767 79.8579 15.5963 79.8579 15.3875C79.8579 15.1787 79.7863 15.0005 79.6429 14.8526C79.4985 14.7047 79.3268 14.6307 79.1244 14.6307C78.9136 14.6307 78.7366 14.7047 78.5933 14.8526Z" fill="#100F12"/>
<path d="M78.1445 21.4286C77.8536 21.6808 77.4131 21.8069 76.8229 21.8069H76.2159L76.393 22.8247L77.1771 22.8377C77.5479 22.8454 77.8831 22.7812 78.1814 22.642C78.4817 22.5028 78.7346 22.3115 78.9411 22.0679C79.1467 21.8244 79.3079 21.5373 79.4217 21.2068C79.5355 20.8762 79.5925 20.5196 79.5925 20.1369V17.2142H78.5808V20.3848C78.5808 20.8284 78.4353 21.1763 78.1445 21.4286Z" fill="#100F12"/>
<path d="M89.4684 15.7527C89.4684 15.57 89.5306 15.4134 89.6528 15.283C89.774 15.1525 89.9247 15.0872 90.1017 15.0872C90.2788 15.0872 90.4274 15.1525 90.5495 15.283C90.6728 15.4134 90.7331 15.57 90.7331 15.7527C90.7331 15.9266 90.6728 16.0767 90.5495 16.2028C90.4274 16.3289 90.2788 16.392 90.1017 16.392C89.9247 16.392 89.774 16.3289 89.6528 16.2028C89.5306 16.0767 89.4684 15.9266 89.4684 15.7527Z" fill="#100F12"/>
<path d="M87.7485 15.7527C87.7485 15.57 87.8107 15.4134 87.9319 15.283C88.0542 15.1525 88.2091 15.0872 88.3935 15.0872C88.5631 15.0872 88.7075 15.1525 88.8308 15.283C88.9531 15.4134 89.0131 15.57 89.0131 15.7527C89.0131 15.9266 88.9531 16.0767 88.8308 16.2028C88.7075 16.3289 88.5631 16.392 88.3935 16.392C88.2091 16.392 88.0542 16.3289 87.9319 16.2028C87.8107 16.0767 87.7485 15.9266 87.7485 15.7527Z" fill="#100F12"/>
<path d="M101.609 20.3195C101.119 20.3195 100.732 20.1912 100.446 19.9346C100.159 19.6781 100.015 19.2616 100.015 18.6886V13.9654H100.976V18.5189C100.976 18.8484 101.043 19.0626 101.173 19.1583C101.304 19.254 101.483 19.3007 101.71 19.3007L103.215 19.3011C103.374 19.3011 103.504 19.2827 103.6 19.2425C103.698 19.2033 103.771 19.1511 103.822 19.087C103.872 19.0207 103.904 18.9424 103.917 18.851C103.93 18.7597 103.936 18.6619 103.936 18.5585V17.2147H104.922V18.7141C104.922 19.2011 104.806 19.5915 104.574 19.8818C104.341 20.1742 103.986 20.3199 103.505 20.3199H101.938C101.927 20.3199 101.917 20.3198 101.907 20.3195H101.609Z" fill="#100F12"/>
<path d="M103.183 21.5789C103.06 21.704 102.999 21.8551 102.999 22.028C102.999 22.2117 103.06 22.3672 103.183 22.4988C103.305 22.6293 103.459 22.6934 103.644 22.6934C103.812 22.6934 103.959 22.6293 104.081 22.4988C104.203 22.3672 104.264 22.2117 104.264 22.028C104.264 21.8551 104.203 21.704 104.081 21.5789C103.959 21.4528 103.812 21.3887 103.644 21.3887C103.459 21.3887 103.305 21.4528 103.183 21.5789Z" fill="#100F12"/>
<path d="M101.565 21.5789C101.442 21.704 101.381 21.8551 101.381 22.028C101.381 22.2117 101.442 22.3672 101.565 22.4988C101.686 22.6293 101.836 22.6934 102.012 22.6934C102.19 22.6934 102.339 22.6293 102.462 22.4988C102.583 22.3672 102.645 22.2117 102.645 22.028C102.645 21.8551 102.583 21.704 102.462 21.5789C102.339 21.4528 102.19 21.3887 102.012 21.3887C101.836 21.3887 101.686 21.4528 101.565 21.5789Z" fill="#100F12"/>
<path d="M106.635 21.428C106.925 21.1769 107.072 20.8279 107.072 20.3843V17.2148H108.083V20.1374C108.083 20.5191 108.026 20.8757 107.912 21.2063C107.799 21.5379 107.638 21.8238 107.432 22.0674C107.226 22.3109 106.972 22.5001 106.672 22.6349C106.374 22.7697 106.039 22.8371 105.668 22.8371L105.238 22.8241L105.074 21.8075H105.314C105.904 21.8075 106.345 21.6803 106.635 21.428Z" fill="#100F12"/>
<path d="M109.349 19.3149L109.474 20.3196H112.472C112.943 20.3196 113.301 20.1934 113.54 19.9401C113.78 19.6889 113.9 19.3889 113.9 19.0409C113.9 18.8484 113.86 18.6539 113.78 18.4538C113.701 18.2537 113.58 18.0667 113.419 17.8927L111.269 15.5311L110.626 16.2096L112.789 18.5712C112.897 18.693 112.952 18.8191 112.952 18.9496C112.952 19.0453 112.915 19.13 112.838 19.204C112.762 19.2779 112.649 19.3149 112.496 19.3149H109.349Z" fill="#100F12"/>
<path fill-rule="evenodd" clip-rule="evenodd" d="M25.5333 12.4914C27.5 12.6395 31.5466 13.2026 32 14.2694C31.7778 16.6084 30.98 21.8704 29.5666 24.2072C27.7999 27.1283 24.9 29.7 20.3 29.7C15.7 29.7 12.8 27.1283 11.0333 24.2072C9.61995 21.8704 8.82219 16.6084 8.59998 14.2694C9.05331 13.2026 13.1 12.6395 15.0667 12.4914C15.2556 11.9622 15.88 10.4466 16.8667 8.61782C17.8533 6.789 19.1333 6.30005 20.3 6.30005C21.4666 6.30005 22.7466 6.789 23.7333 8.61782C24.72 10.4466 25.3444 11.9622 25.5333 12.4914ZM20.3 8.30032C21 8.30032 21.7666 9.25284 22.0667 9.79257C22.3066 10.2244 22.9333 11.6447 23.2 12.3009H17.4C17.6667 11.6447 18.2933 10.2244 18.5333 9.79257C18.8333 9.25284 19.6 8.30032 20.3 8.30032Z" fill="url(#paint0_linear_40_36)"/>
<path d="M49.1444 18.9228C49.1444 20.0099 50.0267 20.8923 51.1139 20.8923C52.2034 20.8923 53.0857 20.0099 53.0833 18.9228V9.16948C53.0833 8.0823 52.201 7.20001 51.1139 7.20001C50.0267 7.20001 49.1444 8.0823 49.1444 9.16948V18.9228Z" fill="#100F12"/>
<path d="M64.835 18.9588H68.7498C69.8274 18.9588 70.7025 19.8315 70.7 20.9115C70.7 21.989 69.825 22.864 68.7474 22.864H63.8515C62.2268 22.864 60.9106 21.5479 60.9106 19.9231V11.1148C60.9106 10.03 61.7905 9.15253 62.8728 9.15253C63.9576 9.15253 64.835 10.0325 64.835 11.1148V18.9588Z" fill="#100F12"/>
<path d="M43.277 13.0432C43.277 11.9585 44.157 11.0811 45.2393 11.0811C46.3216 11.0811 47.2015 11.9585 47.1991 13.0432V19.9231C47.1991 21.5479 45.8829 22.864 44.2582 22.864H39.3526C38.2751 22.864 37.4 21.989 37.4 20.9115C37.4 19.8339 38.2751 18.9588 39.3526 18.9588H43.277V13.0432Z" fill="#100F12"/>
<path d="M56.9957 14.9887C55.9133 14.9887 55.0335 15.8661 55.0335 16.9509V22.8665H51.109C50.0315 22.8665 49.1565 23.7416 49.1565 24.819C49.1565 25.8966 50.0315 26.7717 51.109 26.7717H56.0146C57.6394 26.7717 58.9555 25.4554 58.9555 23.8308V16.9509C58.9555 15.8661 58.0781 14.9887 56.9957 14.9887Z" fill="#100F12"/>
<path d="M56.9957 13.077C58.0928 13.077 58.9821 12.1877 58.9821 11.0907C58.9821 9.99366 58.0928 9.10437 56.9957 9.10437C55.8987 9.10437 55.0094 9.99366 55.0094 11.0907C55.0094 12.1877 55.8987 13.077 56.9957 13.077Z" fill="#100F12"/>
<path d="M64.8856 26.7547C64.8856 27.8517 63.9964 28.741 62.8994 28.741C61.8023 28.741 60.913 27.8517 60.913 26.7547C60.913 25.6577 61.8023 24.7684 62.8994 24.7684C63.9964 24.7684 64.8856 25.6577 64.8856 26.7547Z" fill="#100F12"/>
</g>
<defs>
<linearGradient id="paint0_linear_40_36" x1="20.3" y1="6.30005" x2="20.3" y2="29.7" gradientUnits="userSpaceOnUse">
<stop stop-color="#8FC345"/>
<stop offset="1" stop-color="#118F4E"/>
</linearGradient>
<clipPath id="clip0_40_36">
<rect width="121.5" height="36" fill="white" transform="translate(0.5)"/>
</clipPath>
</defs>
</svg>
