<svg width="48" height="48" viewBox="0 0 48 48" fill="none" xmlns="http://www.w3.org/2000/svg">
<rect width="48" height="48" fill="#757575"/>
<path d="M19.8795 35.56C19.6261 35.56 19.3728 35.4667 19.1728 35.2667C18.7861 34.88 18.7861 34.24 19.1728 33.8534L27.8661 25.16C28.5061 24.52 28.5061 23.48 27.8661 22.84L19.1728 14.1467C18.7861 13.76 18.7861 13.12 19.1728 12.7334C19.5595 12.3467 20.1995 12.3467 20.5861 12.7334L29.2795 21.4267C29.9595 22.1067 30.3461 23.0267 30.3461 24C30.3461 24.9734 29.9728 25.8934 29.2795 26.5734L20.5861 35.2667C20.3861 35.4534 20.1328 35.56 19.8795 35.56Z" fill="#100F12"/>
</svg>
