<svg width="30" height="30" viewBox="0 0 30 30" fill="none" xmlns="http://www.w3.org/2000/svg">
<g clip-path="url(#clip0_244_617)">
<path d="M29.1515 22.0544L28.238 20.8258C28.2466 20.7446 29.1806 18.246 28.0933 16.0768C27.9201 15.7313 27.7842 15.3673 27.7189 14.9864C27.2657 12.3404 28.6064 8.75939 28.632 8.67836C29.0994 7.20121 29.2849 6.6117 28.1557 6.06854C26.9267 5.47733 25.8348 6.16024 25.1972 7.31893C25.1106 7.47619 23.8275 9.85655 23.5335 12.9498L15.6132 2.29729C15.0525 1.54307 14.0036 1.31069 13.202 1.80141C12.2827 2.3642 12.0621 3.57849 12.6907 4.42388L11.7671 3.18164C11.1785 2.3901 10.0595 2.1811 9.25305 2.74904C8.41897 3.33644 8.23745 4.49179 8.84237 5.30542C9.92072 6.75567 9.67275 6.42233 9.79023 6.5803C9.16838 5.74393 7.96136 5.59938 7.15745 6.29208C6.43558 6.91405 6.34359 8.00189 6.91212 8.7666L8.66307 11.1216C8.03454 10.2763 6.80823 10.1376 6.00451 10.856C5.30379 11.4823 5.22422 12.5536 5.78496 13.3078L14.398 24.8921C15.3 26.1053 16.5325 26.9277 17.8781 27.3275C19.1443 27.7037 19.6609 28.703 19.8088 28.8594L19.8697 28.9413C20.3763 29.6227 21.3393 29.7643 22.0207 29.2577L28.8372 24.1895C29.5138 23.6866 29.6543 22.7307 29.1515 22.0544Z" fill="#F4D44E"/>
<path d="M22.9824 4.91431C22.2356 3.34278 21.1876 1.93316 19.8977 0.765418C19.8129 0.686804 19.7625 0.577925 19.7574 0.462387C19.7523 0.346849 19.793 0.233963 19.8706 0.148202C19.9481 0.0624412 20.0564 0.0107177 20.1719 0.00424484C20.2873 -0.00222796 20.4007 0.0370716 20.4874 0.113624C21.8628 1.35868 22.9803 2.86167 23.7765 4.53732C23.8241 4.64228 23.8286 4.76176 23.789 4.87001C23.7494 4.97826 23.6689 5.06662 23.5647 5.11605C23.4606 5.16549 23.3412 5.17205 23.2323 5.13431C23.1234 5.09658 23.0337 5.01757 22.9824 4.91431ZM20.5187 5.60143C19.9985 4.61228 19.3276 3.71003 18.5302 2.92699C18.447 2.84534 18.3997 2.73398 18.3986 2.61742C18.3975 2.50086 18.4428 2.38865 18.5244 2.30546C18.6061 2.22228 18.7174 2.17493 18.834 2.17385C18.9506 2.17277 19.0628 2.21803 19.146 2.29969C20.0085 3.14666 20.7341 4.12256 21.2968 5.19245C21.3493 5.29545 21.3591 5.41501 21.3241 5.52521C21.2891 5.6354 21.2121 5.72737 21.1097 5.78117C21.0074 5.83497 20.888 5.84627 20.7773 5.81263C20.6667 5.77899 20.5738 5.70311 20.5187 5.60143ZM3.88006 19.3306C2.50471 18.0856 1.38721 16.5826 0.590972 14.907C0.542667 14.8019 0.537706 14.682 0.577167 14.5734C0.616627 14.4647 0.697329 14.3759 0.801782 14.3263C0.906235 14.2767 1.02602 14.2703 1.13519 14.3084C1.24435 14.3465 1.3341 14.4261 1.38497 14.53C2.13177 16.1015 3.17985 17.5111 4.46975 18.6788C4.51255 18.7175 4.5473 18.7643 4.57203 18.8164C4.59675 18.8686 4.61096 18.9251 4.61384 18.9827C4.61673 19.0404 4.60823 19.098 4.58883 19.1524C4.56944 19.2067 4.53952 19.2567 4.5008 19.2995C4.3385 19.479 4.06053 19.494 3.88006 19.3306ZM5.22156 17.1446C4.35907 16.2976 3.63347 15.3217 3.07077 14.2518C3.01888 14.1489 3.0095 14.0297 3.04465 13.9199C3.07981 13.8101 3.15668 13.7186 3.2587 13.6649C3.36073 13.6113 3.47975 13.5998 3.59012 13.6331C3.70049 13.6664 3.79338 13.7416 3.84877 13.8427C4.36897 14.8319 5.03981 15.7342 5.83726 16.5173C5.91785 16.5995 5.96297 16.71 5.96294 16.8251C5.9629 16.9403 5.91771 17.0508 5.83708 17.1329C5.75644 17.2151 5.6468 17.2623 5.5317 17.2645C5.41661 17.2667 5.30525 17.2236 5.22156 17.1446Z" fill="#EAE9E8"/>
<path d="M8.92109 5.41042L14.6803 13.1564C14.9709 13.5472 15.5319 13.6096 15.9013 13.2921C16.2371 13.0035 16.2926 12.5044 16.0284 12.149L11.3318 5.83246L11.3262 5.82496L11.3198 5.81629L11.3131 5.80715L11.3082 5.80065L11.3081 5.80053L10.3989 4.5778C9.91413 3.92577 9.93487 3.05455 10.3913 2.43176C8.95033 2.33812 7.85053 3.97007 8.92109 5.41042ZM12.0772 15.7124C12.3889 16.1317 12.9971 16.1839 13.3759 15.8239C13.5183 15.6886 13.6062 15.5058 13.623 15.3101C13.6398 15.1144 13.5844 14.9192 13.4672 14.7616L8.46875 8.03886C7.98066 7.38244 7.97984 6.48818 8.44589 5.85455C6.90987 5.76426 5.98227 7.51492 6.91279 8.76642C9.24775 11.907 9.64724 12.4443 12.0772 15.7124ZM21.4262 28.2135L21.3654 28.1317C21.2175 27.9752 20.7008 26.9759 19.4347 26.5998C18.0891 26.2 16.8566 25.3776 15.9546 24.1644L7.34152 12.5801C6.85426 11.9247 6.85074 11.0301 7.31791 10.3959C5.78645 10.3065 4.85048 12.05 5.78563 13.3077L14.3987 24.892C15.3007 26.1052 16.5331 26.9276 17.8788 27.3274C19.145 27.7036 19.6616 28.7029 19.8095 28.8593L19.8703 28.9412C20.377 29.6225 21.34 29.7642 22.0214 29.2576L22.5938 28.832C22.1475 28.8125 21.7135 28.5999 21.4262 28.2135ZM14.2471 3.69626C13.7616 3.04324 13.7831 2.17031 14.2416 1.5474C13.9246 1.52643 13.6015 1.58906 13.3062 1.74352L13.306 1.74328C13.1561 1.82174 13.0178 1.92061 12.8951 2.03707L12.8944 2.03766C12.2655 2.63572 12.1484 3.60866 12.6336 4.34179L12.6911 4.42388L17.8923 11.4194C18.1961 11.8279 18.7889 11.8783 19.1571 11.5268C19.4969 11.2026 19.5392 10.6749 19.2554 10.3007L14.2471 3.69626ZM25.1976 7.31886C25.1436 7.41701 24.6238 8.38198 24.169 9.84495L24.1685 9.84454C23.8947 10.7255 23.6444 11.7872 23.5339 12.9498C24.016 13.5905 25.0353 13.2788 25.0766 12.478L25.0898 12.2221C25.3838 9.12888 26.6668 6.74857 26.7535 6.59125C26.9061 6.31381 27.0851 6.06408 27.2856 5.85215C26.4214 5.83944 25.6797 6.44295 25.1976 7.31886Z" fill="#E8C842"/>
<path d="M22.763 4.9143C22.8142 5.01756 22.9039 5.09657 23.0128 5.13431C23.1218 5.17204 23.2411 5.16548 23.3453 5.11605C23.4494 5.06661 23.5299 4.97825 23.5695 4.87C23.6092 4.76175 23.6047 4.64228 23.557 4.53731C22.7608 2.86165 21.6433 1.35863 20.2679 0.11356C20.1814 0.0354039 20.0674 -0.00522144 19.951 0.000612738C19.8346 0.00644692 19.7253 0.0582632 19.6471 0.144673C19.5689 0.231134 19.5283 0.3451 19.5341 0.461514C19.5399 0.577927 19.5918 0.687259 19.6782 0.765471C20.9681 1.93318 22.0162 3.34278 22.763 4.9143ZM18.3049 2.30543C18.2233 2.38862 18.1781 2.50083 18.1792 2.61738C18.1802 2.73393 18.2276 2.84527 18.3107 2.92693C19.1082 3.70996 19.7791 4.61224 20.2993 5.60143C20.3366 5.67242 20.3926 5.73185 20.4612 5.77329C20.5299 5.81472 20.6086 5.83659 20.6888 5.83651C21.0148 5.83651 21.2325 5.48735 21.0774 5.19239C20.5147 4.12252 19.7891 3.14664 18.9266 2.29968C18.8434 2.21805 18.7312 2.1728 18.6146 2.17388C18.498 2.17496 18.3866 2.22227 18.3049 2.30543ZM1.16557 14.5299C1.11518 14.4253 1.02541 14.3448 0.915896 14.3062C0.806378 14.2675 0.686008 14.2738 0.58109 14.3236C0.476172 14.3734 0.395235 14.4627 0.355964 14.572C0.316694 14.6813 0.322284 14.8017 0.371512 14.9069C1.16776 16.5825 2.28526 18.0855 3.6606 19.3305C3.74126 19.4037 3.84633 19.4442 3.95527 19.4441C4.35405 19.4441 4.54958 18.9494 4.25017 18.6787C3.6068 18.0962 3.02198 17.4522 2.50408 16.7558C1.98636 16.0593 1.53805 15.3138 1.16557 14.5299ZM3.62931 13.8428C3.5747 13.7403 3.48173 13.6635 3.37071 13.6294C3.25969 13.5952 3.13966 13.6063 3.03685 13.6604C2.93403 13.7145 2.8568 13.807 2.82204 13.9179C2.78727 14.0287 2.79779 14.1488 2.85131 14.2519C3.41402 15.3218 4.13961 16.2977 5.0021 17.1446C5.08528 17.2263 5.1975 17.2715 5.31405 17.2705C5.4306 17.2694 5.54195 17.222 5.6236 17.1388C5.70525 17.0557 5.7505 16.9434 5.74942 16.8269C5.74833 16.7103 5.70098 16.599 5.6178 16.5173C4.82038 15.7343 4.14954 14.832 3.62931 13.8428Z" fill="#100F12"/>
<path d="M16.983 4.43453C16.9367 4.46896 16.8976 4.51218 16.868 4.56172C16.8384 4.61125 16.8189 4.66614 16.8104 4.72324C16.802 4.78033 16.805 4.83853 16.8191 4.89449C16.8332 4.95046 16.8581 5.0031 16.8926 5.04941L22.9616 13.212C23.2013 13.5344 23.7138 13.391 23.7518 12.9914C24.0396 9.96312 25.3089 7.62882 25.3629 7.53085C25.5887 7.12034 26.4281 5.83058 27.7458 6.46456C28.578 6.86499 28.4261 7.09755 27.9873 8.56315C27.6652 9.46819 26.6468 12.6116 27.0662 15.0605C27.2675 16.2353 27.7366 16.304 27.9198 17.8352C27.9932 18.4481 27.9707 19.073 27.8538 19.7003C27.8255 19.8387 27.6656 20.4944 27.0578 21.2246C26.9833 21.3142 26.9474 21.4297 26.958 21.5458C26.9686 21.6619 27.0249 21.769 27.1145 21.8435C27.3014 21.9991 27.5785 21.973 27.7335 21.7869C27.8138 21.6904 27.8907 21.591 27.964 21.489L28.5795 22.3167C28.9369 22.7974 28.8366 23.4794 28.3559 23.8367L27.4313 24.5242C27.0918 24.7766 27.2723 25.3164 27.6938 25.3164C27.942 25.3164 27.9825 25.1768 28.8804 24.5421C29.75 23.8954 29.9315 22.6618 29.2849 21.7922L28.5016 20.7387C28.6132 20.3102 28.972 19.2297 28.7927 17.7306C28.598 16.1035 28.0931 15.8489 27.9327 14.912C27.5394 12.6157 28.5991 9.46596 28.8155 8.85787C28.8246 8.83227 28.8299 8.81645 28.8317 8.81082C29.2945 7.3478 29.6003 6.38118 28.1269 5.67232C26.8087 5.03822 25.4214 5.60125 24.5929 7.10681C24.5421 7.19903 23.4791 9.15365 23.022 11.8201L17.5979 4.525C17.5635 4.47867 17.5203 4.43958 17.4707 4.40996C17.4212 4.38034 17.3663 4.36077 17.3092 4.35237C17.2521 4.34396 17.1939 4.3469 17.138 4.361C17.082 4.37509 17.0293 4.40008 16.983 4.43453ZM26.3976 25.8405C26.3631 25.7942 26.3199 25.7551 26.2704 25.7254C26.2208 25.6958 26.166 25.6762 26.1089 25.6678C26.0518 25.6594 25.9936 25.6624 25.9376 25.6765C25.8816 25.6906 25.829 25.7156 25.7827 25.75L21.5394 28.9049C21.0535 29.2662 20.3645 29.1647 20.0033 28.6791C19.8278 28.4943 19.2379 27.3379 17.7842 26.9061C15.1715 26.13 14.2911 24.172 13.7955 23.6396C13.7251 23.5483 13.6217 23.4884 13.5075 23.4726C13.3934 23.4568 13.2776 23.4865 13.1851 23.5553C13.0926 23.6241 13.0308 23.7264 13.0131 23.8403C12.9953 23.9542 13.023 24.0705 13.0901 24.1641C13.554 24.6579 14.599 26.8768 17.534 27.7487C18.6622 28.0838 19.1089 29.0006 19.2981 29.2035C19.9473 30.0766 21.1878 30.2617 22.064 29.6103L26.3072 26.4554C26.4007 26.3858 26.4627 26.2819 26.4797 26.1666C26.4966 26.0513 26.4671 25.934 26.3976 25.8405Z" fill="#100F12"/>
<path d="M11.7565 2.74488C10.4842 1.34508 8.15521 1.9957 7.85475 3.87157C7.76809 4.41256 7.87771 4.9528 8.164 5.41205C6.30249 5.37192 5.20919 7.50824 6.33987 9.0288L7.0274 9.95352C5.13161 9.93325 4.10382 12.0785 5.21265 13.5699L11.8637 22.5154C11.9046 22.5705 11.9578 22.6153 12.0191 22.6461C12.0805 22.6769 12.1481 22.6928 12.2167 22.6927C12.5726 22.6927 12.7864 22.2833 12.5691 21.991C4.56982 11.2319 6.76426 14.1836 5.91805 13.0454C5.19308 12.0703 5.94079 10.7183 7.13082 10.8392C7.78244 10.9053 8.08443 11.3785 8.09135 11.3845L12.0905 16.7633C12.1314 16.8184 12.1847 16.8631 12.246 16.8939C12.3073 16.9247 12.3749 16.9407 12.4436 16.9406C12.8003 16.9406 13.0128 16.5305 12.7959 16.2388L7.04516 8.50427C6.60688 7.91482 6.68569 7.08935 7.22463 6.625C7.83178 6.10193 8.74443 6.20582 9.21787 6.8425L14.6449 14.1417C14.6857 14.1968 14.739 14.2415 14.8003 14.2723C14.8616 14.3031 14.9293 14.319 14.9979 14.3189C15.0793 14.3189 15.1591 14.2962 15.2284 14.2534C15.2977 14.2106 15.3537 14.1494 15.3903 14.0767C15.4268 14.0039 15.4424 13.9224 15.4353 13.8413C15.4283 13.7602 15.3988 13.6826 15.3502 13.6173L8.97529 5.04315C8.51679 4.42657 8.65437 3.55347 9.28624 3.10833C9.88665 2.68564 10.7426 2.83616 11.1945 3.4439L17.891 12.4505C17.9254 12.4968 17.9686 12.5359 18.0182 12.5655C18.0677 12.5951 18.1226 12.6147 18.1797 12.6231C18.2368 12.6315 18.295 12.6285 18.351 12.6144C18.4069 12.6004 18.4596 12.5754 18.5059 12.541C18.5522 12.5065 18.5913 12.4633 18.6209 12.4138C18.6505 12.3642 18.6701 12.3093 18.6785 12.2522C18.6869 12.1952 18.6839 12.137 18.6698 12.081C18.6557 12.025 18.6308 11.9724 18.5963 11.9261L12.8238 4.16161C12.3559 3.53249 12.5034 2.60988 13.2119 2.17623C13.8069 1.81195 14.6103 1.98035 15.0409 2.55949L15.6664 3.40077C15.7009 3.44709 15.7441 3.48617 15.7936 3.51578C15.8432 3.54539 15.898 3.56496 15.9551 3.57336C16.0122 3.58176 16.0704 3.57883 16.1264 3.56474C16.1824 3.55065 16.235 3.52568 16.2813 3.49124C16.3276 3.45681 16.3667 3.41359 16.3963 3.36405C16.4259 3.31452 16.4455 3.25963 16.4539 3.20254C16.4623 3.14544 16.4594 3.08725 16.4453 3.03128C16.4312 2.97531 16.4062 2.92267 16.3718 2.87636L15.7463 2.03507C14.6282 0.531212 12.2628 0.925488 11.7565 2.74488Z" fill="#100F12"/>
</g>
<defs>
<clipPath id="clip0_244_617">
<rect width="30" height="30" fill="white"/>
</clipPath>
</defs>
</svg>
