<svg width="122" height="36" viewBox="0 0 122 36" fill="none" xmlns="http://www.w3.org/2000/svg">
<g clip-path="url(#clip0_40_60)">
<path d="M117.45 0.450012H4.04995C2.06173 0.450012 0.449951 2.06179 0.449951 4.05001V31.95C0.449951 33.9382 2.06173 35.55 4.04995 35.55H117.45C119.438 35.55 121.05 33.9382 121.05 31.95V4.05001C121.05 2.06179 119.438 0.450012 117.45 0.450012Z" fill="#FDFDFD" stroke="#EDEDED"/>
<path d="M9.4167 6.65821C9.1548 6.93451 9 7.36471 9 7.92271V27.8262C9 28.3842 9.1548 28.8135 9.4167 29.0907L9.4824 29.1564L20.6334 18.0054V17.7426L9.4824 6.59161L9.4167 6.65911V6.65821Z" fill="url(#paint0_linear_40_60)"/>
<path d="M9.4167 6.65821C9.1548 6.93451 9 7.36471 9 7.92271V27.8262C9 28.3842 9.1548 28.8135 9.4167 29.0907L9.4824 29.1564L20.6334 18.0054V17.7426L9.4824 6.59161L9.4167 6.65911V6.65821Z" fill="url(#paint1_linear_40_60)"/>
<path d="M20.6333 17.7426V18.0063L24.3494 21.7233L24.4349 21.6774L28.8377 19.1736C30.0959 18.4599 30.0959 17.2899 28.8377 16.5753L24.4349 14.0733L24.3503 14.0256L20.6333 17.7426Z" fill="#FFD200"/>
<path d="M20.6333 17.7426V18.0063L24.3494 21.7233L24.4349 21.6774L28.8377 19.1736C30.0959 18.4599 30.0959 17.2899 28.8377 16.5753L24.4349 14.0733L24.3503 14.0256L20.6333 17.7426Z" fill="url(#paint2_linear_40_60)"/>
<path fill-rule="evenodd" clip-rule="evenodd" d="M9.41663 29.0907C9.63263 29.3202 9.92333 29.4444 10.2608 29.4489H10.2986C10.5983 29.4444 10.9331 29.3472 11.2868 29.1465L24.4349 21.6765L20.6333 17.8749L9.41663 29.0907Z" fill="url(#paint3_linear_40_60)"/>
<path d="M9.41663 6.65819L20.6333 17.874L24.4349 14.0715L11.2868 6.60239C10.925 6.39719 10.5821 6.29999 10.2779 6.29999C9.93323 6.29999 9.63623 6.42509 9.41663 6.65819Z" fill="#00F076"/>
<path d="M9.41663 6.65819L20.6333 17.874L24.4349 14.0715L11.2868 6.60239C10.925 6.39719 10.5821 6.29999 10.2779 6.29999C9.93323 6.29999 9.63623 6.42509 9.41663 6.65819Z" fill="url(#paint4_linear_40_60)"/>
<path fill-rule="evenodd" clip-rule="evenodd" d="M95.3055 27.2106H96.984V15.9606H95.3055V27.2106ZM110.431 20.0124L108.507 24.8904H108.448L106.451 20.0124H104.642L107.638 26.8299L105.93 30.6225H107.681L112.299 20.0124H110.431ZM100.906 25.9326C100.357 25.9326 99.5904 25.6572 99.5904 24.9768C99.5904 24.1092 100.545 23.7753 101.371 23.7753C102.108 23.7753 102.456 23.9355 102.904 24.1515C102.843 24.6401 102.607 25.0899 102.24 25.4176C101.872 25.7453 101.398 25.9286 100.906 25.9335V25.9326ZM101.11 19.7658C99.8937 19.7658 98.6346 20.3022 98.1135 21.4884L99.6039 22.1112C99.9234 21.4884 100.516 21.2859 101.138 21.2859C102.007 21.2859 102.891 21.8079 102.904 22.7331V22.8501C102.6 22.6755 101.949 22.4154 101.153 22.4154C99.5463 22.4154 97.9101 23.2983 97.9101 24.948C97.9101 26.4537 99.2277 27.4239 100.705 27.4239C101.833 27.4239 102.456 26.9172 102.847 26.3232H102.904V27.1917H104.526V22.878C104.526 20.8809 103.035 19.7658 101.11 19.7658ZM90.7317 21.3822H88.3422V17.5257H90.7317C91.9863 17.5257 92.6991 18.5643 92.6991 19.4535C92.6991 20.3265 91.9863 21.3822 90.7317 21.3822ZM90.6876 15.9588H86.6637V27.2106H88.3422V22.9482H90.6876C92.5488 22.9482 94.3794 21.6009 94.3794 19.4535C94.3794 17.307 92.5488 15.9588 90.6876 15.9588ZM68.7447 25.9344C67.5846 25.9344 66.6135 24.9633 66.6135 23.6304C66.6135 22.2804 67.5846 21.2949 68.7447 21.2949C69.8904 21.2949 70.7895 22.2804 70.7895 23.6295C70.7895 24.9633 69.8904 25.9344 68.7447 25.9344ZM70.6734 20.6424H70.6149C70.2378 20.1933 69.5133 19.7874 68.5998 19.7874C66.6855 19.7874 64.9314 21.4704 64.9314 23.6304C64.9314 25.7751 66.6855 27.4428 68.5998 27.4428C69.5133 27.4428 70.2378 27.0378 70.6149 26.5725H70.6734V27.1233C70.6734 28.5885 69.8904 29.3706 68.6286 29.3706C67.5999 29.3706 66.9618 28.6326 66.7008 28.008L65.2365 28.6173C65.6559 29.6316 66.7728 30.879 68.6286 30.879C70.6014 30.879 72.2682 29.7189 72.2682 26.892V20.0187H70.6734V20.6424ZM73.4283 27.2106H75.1095V15.9606H73.4283V27.2106ZM77.589 23.499C77.5458 22.0194 78.7356 21.267 79.5906 21.267C80.2575 21.267 80.8227 21.6 81.0117 22.0779L77.589 23.499ZM82.809 22.2228C82.4904 21.3678 81.5184 19.7865 79.5321 19.7865C77.5602 19.7865 75.9222 21.3381 75.9222 23.6151C75.9222 25.7607 77.5458 27.4428 79.7202 27.4428C81.4752 27.4428 82.4904 26.37 82.9107 25.7463L81.6057 24.876C81.171 25.515 80.577 25.9344 79.7202 25.9344C78.8652 25.9344 78.2559 25.5429 77.8653 24.7743L82.9827 22.6575L82.809 22.2228ZM42.0318 20.9628V22.5855H45.918C45.8019 23.499 45.4977 24.1659 45.0333 24.6294C44.4672 25.1964 43.5834 25.8192 42.0318 25.8192C39.6396 25.8192 37.7694 23.8905 37.7694 21.4992C37.7694 19.1061 39.6396 17.1765 42.0318 17.1765C43.3224 17.1765 44.2647 17.6841 44.9604 18.3375L46.1061 17.1918C45.135 16.2648 43.8444 15.5538 42.0318 15.5538C38.7549 15.5538 36 18.2214 36 21.4983C36 24.7743 38.7549 27.4428 42.0318 27.4428C43.8003 27.4428 45.135 26.8623 46.1781 25.7751C47.2518 24.7023 47.5848 23.1948 47.5848 21.9771C47.5848 21.6 47.556 21.2517 47.4984 20.9619L42.0318 20.9628ZM52.0029 25.9344C50.8428 25.9344 49.842 24.9777 49.842 23.6151C49.842 22.2381 50.8428 21.2949 52.0029 21.2949C53.163 21.2949 54.1629 22.2372 54.1629 23.6151C54.1629 24.9777 53.163 25.9344 52.0029 25.9344ZM52.0029 19.7874C49.8861 19.7874 48.1608 21.3966 48.1608 23.6151C48.1608 25.8201 49.8861 27.4428 52.0029 27.4428C54.1197 27.4428 55.845 25.8192 55.845 23.6151C55.845 21.3966 54.1197 19.7874 52.0029 19.7874ZM60.3846 25.9344C59.2245 25.9344 58.2246 24.9777 58.2246 23.6151C58.2246 22.2381 59.2245 21.2949 60.3846 21.2949C61.5447 21.2949 62.5446 22.2372 62.5446 23.6151C62.5446 24.9777 61.5447 25.9344 60.3846 25.9344ZM60.3846 19.7874C58.2678 19.7874 56.5425 21.3966 56.5425 23.6151C56.5425 25.8201 58.2678 27.4428 60.3846 27.4428C62.5023 27.4428 64.2276 25.8192 64.2276 23.6151C64.2276 21.3966 62.5023 19.7874 60.3846 19.7874Z" fill="#100F12"/>
<path d="M111.831 9.45271C111.996 9.63721 112.117 9.82171 112.192 10.0071C112.269 10.1916 112.306 10.3698 112.306 10.5417C112.306 10.8657 112.191 11.1393 111.96 11.3634C111.729 11.5884 111.389 11.7 110.94 11.7H108.544L108.495 10.71H110.792C111.089 10.71 111.237 10.5975 111.237 10.3734C111.237 10.2834 111.203 10.1961 111.136 10.1106L109.544 8.30431L110.267 7.63111L111.831 9.45271ZM105.357 12.888H105.475C105.727 12.888 105.941 12.8502 106.119 12.7737C106.297 12.6981 106.444 12.5991 106.56 12.4767C106.675 12.3554 106.761 12.21 106.812 12.051C106.865 11.889 106.891 11.7234 106.891 11.5515V9.06661H107.802V11.5515C107.802 11.8755 107.746 12.1788 107.634 12.4623C107.529 12.7344 107.374 12.9846 107.178 13.2003C106.985 13.4098 106.751 13.5782 106.491 13.6953C106.222 13.8176 105.929 13.88 105.634 13.878H105.406L105.357 12.888ZM104.367 11.7H102.228C102.201 11.7 102.179 11.673 102.159 11.6208C102.136 11.5235 102.127 11.4236 102.13 11.3238L102.129 11.2248C102.129 10.9935 102.139 10.8504 102.159 10.7937C102.179 10.7379 102.202 10.71 102.228 10.71H104.297C104.7 10.71 104.901 10.5156 104.901 10.1259V9.06661H105.812V10.1952C105.812 10.6902 105.686 11.0646 105.436 11.3184C105.185 11.5731 104.828 11.7 104.367 11.7ZM104.664 13.6008H103.743V12.7197H104.664V13.6008ZM103.367 13.6008H102.436V12.7197H103.367V13.6008ZM102.228 11.7H101.842C101.671 11.7 101.509 11.6766 101.357 11.6307C101.207 11.5856 101.07 11.5061 100.957 11.3985C100.834 11.2789 100.739 11.1335 100.678 10.9728C100.603 10.7616 100.568 10.5381 100.575 10.314V6.20551H101.496V10.0962C101.496 10.2879 101.539 10.4382 101.624 10.5462C101.71 10.656 101.846 10.71 102.03 10.71H102.228V11.7ZM95.6555 11.3238L95.6546 11.2248C95.6546 10.9935 95.6645 10.8504 95.6843 10.7937C95.7041 10.7379 95.7275 10.71 95.7536 10.71H96.5654C96.6644 10.71 96.7499 10.7118 96.8228 10.7145L96.9281 10.7208L97.0262 10.7298C97.1554 10.7406 97.2832 10.7638 97.4078 10.7991C97.2288 10.725 97.059 10.6302 96.902 10.5165C96.7861 10.4315 96.6885 10.3241 96.6149 10.2006C96.5487 10.0844 96.5051 9.95679 96.4862 9.82441C96.4655 9.67502 96.4556 9.52432 96.4565 9.37351C96.459 9.01497 96.5929 8.66978 96.8327 8.40331C96.9587 8.26471 97.1135 8.15131 97.298 8.06131C97.4825 7.97221 97.7003 7.92811 97.9514 7.92811C98.1827 7.92811 98.3933 7.95781 98.585 8.01721C98.7767 8.07661 98.9414 8.17561 99.08 8.31421C99.2186 8.45281 99.3257 8.6355 99.4022 8.8632C99.4778 9.0918 99.5156 9.36991 99.5156 9.70021V10.1556C99.5156 10.6371 99.377 11.0151 99.0998 11.2896C98.8226 11.5632 98.3834 11.7 97.7831 11.7H95.7536C95.7266 11.7 95.7041 11.673 95.6843 11.6208C95.6617 11.5235 95.652 11.4236 95.6555 11.3238ZM97.9316 8.91811C97.7138 8.91811 97.5536 8.98561 97.451 9.12061C97.3533 9.24319 97.2995 9.39495 97.298 9.55171C97.298 9.63091 97.3079 9.70831 97.3277 9.78391C97.3558 9.87335 97.407 9.95378 97.4762 10.017C97.5554 10.0962 97.6742 10.1799 97.8326 10.269C97.991 10.359 98.2052 10.4589 98.4761 10.5714C98.5345 10.501 98.5752 10.4177 98.5949 10.3284C98.6219 10.2267 98.6345 10.1223 98.6345 10.017V9.77941C98.6345 9.52831 98.585 9.32221 98.486 9.16021C98.387 8.99821 98.2025 8.91811 97.9316 8.91811ZM98.4564 7.18561H97.4465V6.27481H98.4564V7.18561ZM93.3875 10.71C93.7898 10.71 93.9914 10.5156 93.9914 10.1259V9.06661H94.9121V10.1259C94.9121 10.3374 94.9778 10.4868 95.1101 10.5759C95.248 10.6669 95.4103 10.7137 95.5754 10.71H95.7536V11.7H95.5358C95.318 11.7 95.1128 11.664 94.922 11.5911C94.7303 11.5191 94.5656 11.3661 94.427 11.1357C94.2821 11.367 94.121 11.5182 93.9464 11.5911C93.7718 11.6631 93.5855 11.7 93.3875 11.7H90.3581C90.1396 11.7059 89.9221 11.667 89.7191 11.5857C89.5567 11.5184 89.4115 11.4154 89.2943 11.2842C89.1836 11.1557 89.1008 11.0055 89.0513 10.8432C88.9981 10.6719 88.9714 10.4934 88.9721 10.314V9.027H89.8829V10.0764C89.8829 10.2744 89.9279 10.4292 90.0161 10.5417C90.1061 10.6542 90.2861 10.71 90.5561 10.71H93.3875ZM93.0509 8.33401H92.1104V7.45291H93.0509V8.33401ZM91.7639 8.33401H90.8234V7.45291H91.7639V8.33401ZM86.0021 6.20551H86.9228V11.7H86.0021V6.20551ZM85.0913 11.5515C85.0913 11.8755 85.0355 12.1788 84.923 12.4623C84.8183 12.7344 84.6638 12.9846 84.4676 13.2003C84.274 13.4098 84.0402 13.5782 83.78 13.6953C83.5111 13.8176 83.2187 13.88 82.9232 13.878H82.3589L82.3094 12.888H82.6955C82.9592 12.888 83.1851 12.8502 83.3741 12.7737C83.5622 12.6981 83.7152 12.5991 83.834 12.4767C83.9528 12.3552 84.041 12.213 84.0959 12.051C84.1526 11.889 84.1805 11.7234 84.1805 11.5515V9.06661H85.0913V11.5515ZM85.1012 8.01721H84.0914V7.10641H85.1012V8.01721Z" fill="#100F12"/>
</g>
<defs>
<linearGradient id="paint0_linear_40_60" x1="14.8167" y1="6.59161" x2="14.8167" y2="29.1564" gradientUnits="userSpaceOnUse">
<stop stop-color="white"/>
<stop offset="1"/>
</linearGradient>
<linearGradient id="paint1_linear_40_60" x1="14.6175" y1="7.40372" x2="9.74121" y2="28.3342" gradientUnits="userSpaceOnUse">
<stop stop-color="#00C3FF"/>
<stop offset="1" stop-color="#06E1FF"/>
</linearGradient>
<linearGradient id="paint2_linear_40_60" x1="20.6333" y1="17.8745" x2="29.7814" y2="17.8745" gradientUnits="userSpaceOnUse">
<stop stop-color="#FEBD00"/>
<stop offset="1" stop-color="#FFDB00"/>
</linearGradient>
<linearGradient id="paint3_linear_40_60" x1="22.3689" y1="21.4515" x2="6.04524" y2="37.7752" gradientUnits="userSpaceOnUse">
<stop stop-color="#FF3A44"/>
<stop offset="1" stop-color="#C31162"/>
</linearGradient>
<linearGradient id="paint4_linear_40_60" x1="10.7409" y1="9.12786" x2="18.6136" y2="17.5611" gradientUnits="userSpaceOnUse">
<stop stop-color="#04E975"/>
<stop offset="1" stop-color="#00F076"/>
</linearGradient>
<clipPath id="clip0_40_60">
<rect width="121.5" height="36" fill="white"/>
</clipPath>
</defs>
</svg>
