<svg width="44" height="44" viewBox="0 0 44 44" fill="none" xmlns="http://www.w3.org/2000/svg">
<path d="M25.7033 10.8718C25.6708 10.7791 25.6134 10.6972 25.5373 10.635C25.4612 10.5729 25.3694 10.533 25.272 10.5198L23.3376 10.2572L22.4439 8.43223C22.3983 8.34227 22.3287 8.2667 22.2427 8.21393C22.1567 8.16116 22.0578 8.13325 21.957 8.1333C21.8559 8.13479 21.7573 8.16501 21.6727 8.22044C21.5881 8.27586 21.5211 8.3542 21.4794 8.4463L20.6382 10.3L18.7116 10.6239C18.6148 10.6403 18.5244 10.683 18.4504 10.7474C18.3763 10.8118 18.3214 10.8954 18.2918 10.989C18.2622 11.0826 18.259 11.1825 18.2825 11.2778C18.306 11.3731 18.3554 11.4601 18.4252 11.5292L19.8564 12.9453L19.5518 14.988C19.5369 15.087 19.5502 15.1882 19.5902 15.28C19.6302 15.3718 19.6952 15.4505 19.7778 15.507C19.8604 15.5636 19.9573 15.5957 20.0574 15.5997C20.1574 15.6037 20.2565 15.5794 20.3434 15.5297L22.0507 14.5558L23.7856 15.475C23.8739 15.5218 23.9736 15.5428 24.0733 15.5356C24.173 15.5285 24.2687 15.4934 24.3494 15.4345C24.4302 15.3756 24.4927 15.2952 24.53 15.2024C24.5672 15.1097 24.5776 15.0083 24.56 14.9099L24.196 12.8776L25.5866 11.4162C25.6543 11.345 25.7011 11.2565 25.7217 11.1605C25.7423 11.0644 25.7359 10.9645 25.7033 10.8718ZM23.2372 12.338C23.1795 12.3986 23.1369 12.472 23.1128 12.5522C23.0888 12.6323 23.0839 12.717 23.0986 12.7994L23.3168 14.0198L22.2908 13.476C22.2114 13.4339 22.1227 13.4125 22.0329 13.414C21.9431 13.4155 21.8551 13.4397 21.7772 13.4844L20.7684 14.0594L20.9512 12.8349C20.9635 12.752 20.9561 12.6673 20.9295 12.5878C20.903 12.5082 20.8582 12.4361 20.7986 12.3771L19.9152 11.5032L21.0949 11.3047C21.181 11.2902 21.2623 11.2547 21.3315 11.2014C21.4007 11.148 21.4557 11.0785 21.4918 10.999L21.9829 9.9167L22.5048 10.9818C22.5433 11.0605 22.6007 11.1285 22.6717 11.1798C22.7427 11.2311 22.8252 11.2642 22.912 11.2761L24.0948 11.4365L23.2372 12.338Z" fill="#FDFDFD"/>
<path d="M34.4665 27.5764C36.0743 26.2915 36.3361 23.9466 35.0513 22.3387C34.459 21.5974 33.6061 21.11 32.6667 20.9759V16.6667H31.6V20.9759C29.5625 21.2668 28.1465 23.1544 28.4374 25.1919C28.5713 26.13 29.0576 26.9819 29.7972 27.5742C28.77 27.7589 27.8192 28.24 27.0619 28.9581C26.3053 28.243 25.3573 27.763 24.3331 27.5765C25.9427 26.2879 26.203 23.9385 24.9144 22.3289C23.6259 20.7193 21.2764 20.4589 19.6668 21.7475C18.0572 23.0361 17.7969 25.3855 19.0855 26.9951C19.2573 27.2097 19.4522 27.4047 19.6668 27.5765C18.6426 27.7631 17.6946 28.2431 16.938 28.9581C16.1807 28.24 15.2299 27.7589 14.2027 27.5742C15.8092 26.2877 16.0687 23.9424 14.7821 22.3358C14.1898 21.5961 13.338 21.1099 12.3999 20.976V12.4H11.3333V20.9759C9.29587 21.2667 7.87987 23.1543 8.17073 25.1917C8.30481 26.1311 8.79221 26.984 9.53353 27.5764C7.35367 28.0678 6 29.2731 6 30.8787V37.4667C5.99996 37.5367 6.0137 37.606 6.04045 37.6707C6.0672 37.7354 6.10643 37.7942 6.1559 37.8437C6.20537 37.8932 6.26411 37.9325 6.32877 37.9593C6.39343 37.9861 6.46273 38 6.53273 38H37.4667C37.5367 38 37.606 37.9863 37.6707 37.9596C37.7354 37.9328 37.7942 37.8936 37.8437 37.8441C37.8932 37.7946 37.9325 37.7359 37.9593 37.6712C37.9861 37.6066 38 37.5373 38 37.4673V30.8787C38 29.2731 36.6463 28.0678 34.4665 27.5764ZM9.2 24.6667C9.2 23.1939 10.3939 22 11.8667 22C13.3394 22 14.5333 23.1939 14.5333 24.6667C14.5333 26.1394 13.3394 27.3333 11.8667 27.3333C10.3946 27.3316 9.20173 26.1387 9.2 24.6667ZM16.1333 30.8787V36.9333H7.06667V30.8787C7.06667 29.1755 9.55467 28.4 11.8667 28.4C13.9841 28.4 15.6485 28.9709 16.3243 29.8967C16.1988 30.2089 16.134 30.5422 16.1333 30.8787ZM19.3333 24.6667C19.3333 23.1939 20.5273 22 22 22C23.4727 22 24.6667 23.1939 24.6667 24.6667C24.6667 26.1394 23.4727 27.3333 22 27.3333C20.5279 27.3316 19.3351 26.1387 19.3333 24.6667ZM26.8 36.9333H17.2V30.8787C17.2 29.1755 19.688 28.4 22 28.4C24.312 28.4 26.8 29.1755 26.8 30.8787V36.9333ZM29.4667 24.6667C29.4667 23.1939 30.6606 22 32.1333 22C33.6061 22 34.8 23.1939 34.8 24.6667C34.8 26.1394 33.6061 27.3333 32.1333 27.3333C30.6613 27.3316 29.4684 26.1387 29.4667 24.6667ZM36.9333 36.9333H27.8667V30.8787C27.866 30.5422 27.8012 30.2089 27.6757 29.8967C28.3515 28.9709 30.0159 28.4 32.1333 28.4C34.4453 28.4 36.9333 29.1755 36.9333 30.8787V36.9333ZM32.1339 6H11.8667C11.7967 5.99996 11.7273 6.0137 11.6627 6.04045C11.598 6.0672 11.5392 6.10643 11.4897 6.1559C11.4401 6.20537 11.4008 6.26411 11.374 6.32877C11.3472 6.39343 11.3334 6.46273 11.3333 6.53273V9.2H12.4V7.06667H31.6V13.4667H32.6667V6.53333C32.6667 6.46333 32.653 6.39401 32.6262 6.32932C32.5995 6.26463 32.5602 6.20585 32.5108 6.15632C32.4613 6.1068 32.4026 6.0675 32.3379 6.04068C32.2732 6.01386 32.2039 6.00004 32.1339 6Z" fill="#FDFDFD"/>
<path d="M26.8001 8.1333H27.8668V9.19997H26.8001V8.1333ZM26.8001 10.2666H27.8668V11.3333H26.8001V10.2666ZM26.8001 12.4H27.8668V13.4666H26.8001V12.4ZM26.8001 14.5333H27.8668V15.6H26.8001V14.5333ZM16.1334 8.1333H17.2001V9.19997H16.1334V8.1333ZM16.1334 10.2666H17.2001V11.3333H16.1334V10.2666ZM16.1334 12.4H17.2001V13.4666H16.1334V12.4ZM16.1334 14.5333H17.2001V15.6H16.1334V14.5333ZM26.8001 16.6666H27.8668V17.7333H26.8001V16.6666ZM28.9334 8.1333H30.0001V9.19997H28.9334V8.1333ZM28.9334 10.2666H30.0001V11.3333H28.9334V10.2666ZM28.9334 12.4H30.0001V13.4666H28.9334V12.4ZM28.9334 14.5333H30.0001V15.6H28.9334V14.5333ZM28.9334 16.6666H30.0001V17.7333H28.9334V16.6666ZM24.6668 16.6666H25.7334V17.7333H24.6668V16.6666ZM22.5334 16.6666H23.6001V17.7333H22.5334V16.6666ZM20.4001 16.6666H21.4668V17.7333H20.4001V16.6666ZM18.2668 16.6666H19.3334V17.7333H18.2668V16.6666ZM16.1334 16.6666H17.2001V17.7333H16.1334V16.6666ZM14.0001 8.1333H15.0668V9.19997H14.0001V8.1333ZM14.0001 10.2666H15.0668V11.3333H14.0001V10.2666ZM14.0001 12.4H15.0668V13.4666H14.0001V12.4ZM14.0001 14.5333H15.0668V15.6H14.0001V14.5333ZM14.0001 16.6666H15.0668V17.7333H14.0001V16.6666ZM26.8001 18.8H27.8668V19.8666H26.8001V18.8ZM28.9334 18.8H30.0001V19.8666H28.9334V18.8ZM24.6668 18.8H25.7334V19.8666H24.6668V18.8ZM22.5334 18.8H23.6001V19.8666H22.5334V18.8ZM20.4001 18.8H21.4668V19.8666H20.4001V18.8ZM18.2668 18.8H19.3334V19.8666H18.2668V18.8ZM16.1334 18.8H17.2001V19.8666H16.1334V18.8ZM14.0001 18.8H15.0668V19.8666H14.0001V18.8ZM11.8668 10.2666C10.9835 10.2657 10.2677 9.5499 10.2668 8.66663C10.2668 8.52519 10.2106 8.38953 10.1106 8.28951C10.0105 8.18949 9.87489 8.1333 9.73344 8.1333C9.59199 8.1333 9.45633 8.18949 9.35632 8.28951C9.2563 8.38953 9.20011 8.52519 9.20011 8.66663C9.19917 9.5499 8.48337 10.2657 7.60011 10.2666C7.45866 10.2666 7.323 10.3228 7.22298 10.4228C7.12296 10.5229 7.06677 10.6585 7.06677 10.8C7.06677 10.9414 7.12296 11.0771 7.22298 11.1771C7.323 11.2771 7.45866 11.3333 7.60011 11.3333C8.48337 11.3342 9.19917 12.05 9.20011 12.9333C9.20011 13.0747 9.2563 13.2104 9.35632 13.3104C9.45633 13.4104 9.59199 13.4666 9.73344 13.4666C9.87489 13.4666 10.0105 13.4104 10.1106 13.3104C10.2106 13.2104 10.2668 13.0747 10.2668 12.9333C10.2677 12.05 10.9835 11.3342 11.8668 11.3333C12.0082 11.3333 12.1439 11.2771 12.2439 11.1771C12.3439 11.0771 12.4001 10.9414 12.4001 10.8C12.4001 10.6585 12.3439 10.5229 12.2439 10.4228C12.1439 10.3228 12.0082 10.2666 11.8668 10.2666ZM9.73344 11.3348C9.58129 11.1322 9.40122 10.9521 9.19857 10.8C9.40122 10.6478 9.58129 10.4677 9.73344 10.2651C9.88558 10.4677 10.0657 10.6478 10.2683 10.8C10.0657 10.9521 9.8856 11.1322 9.73344 11.3348ZM36.9334 14.5333C36.0502 14.5324 35.3344 13.8166 35.3334 12.9333C35.3334 12.7919 35.2772 12.6562 35.1772 12.5562C35.0772 12.4562 34.9416 12.4 34.8001 12.4C34.6587 12.4 34.523 12.4562 34.423 12.5562C34.323 12.6562 34.2668 12.7919 34.2668 12.9333C34.2658 13.8166 33.55 14.5324 32.6668 14.5333C32.5253 14.5333 32.3897 14.5895 32.2896 14.6895C32.1896 14.7895 32.1334 14.9252 32.1334 15.0666C32.1334 15.2081 32.1896 15.3437 32.2896 15.4438C32.3897 15.5438 32.5253 15.6 32.6668 15.6C33.55 15.6009 34.2658 16.3167 34.2668 17.2C34.2668 17.3414 34.323 17.4771 34.423 17.5771C34.523 17.6771 34.6587 17.7333 34.8001 17.7333C34.9416 17.7333 35.0772 17.6771 35.1772 17.5771C35.2772 17.4771 35.3334 17.3414 35.3334 17.2C35.3344 16.3167 36.0502 15.6009 36.9334 15.6C37.0749 15.6 37.2105 15.5438 37.3106 15.4438C37.4106 15.3437 37.4668 15.2081 37.4668 15.0666C37.4668 14.9252 37.4106 14.7895 37.3106 14.6895C37.2105 14.5895 37.0749 14.5333 36.9334 14.5333ZM34.8001 15.6015C34.648 15.3988 34.4679 15.2188 34.2652 15.0666C34.4679 14.9145 34.648 14.7344 34.8001 14.5318C34.9522 14.7344 35.1323 14.9145 35.335 15.0666C35.1323 15.2188 34.9522 15.3989 34.8001 15.6015Z" fill="#FDFDFD"/>
<rect x="0.5" y="0.5" width="43" height="43" rx="7.5" stroke="#FDFDFD"/>
</svg>
