<svg width="580" height="28" viewBox="0 0 580 28" fill="none" xmlns="http://www.w3.org/2000/svg">
<line x1="5" y1="14" x2="575" y2="14.0001" stroke="#757575" stroke-width="10" stroke-linecap="round"/>
<line x1="179" y1="14" x2="575" y2="14" stroke="#002C5E" stroke-width="10" stroke-linecap="round"/>
<rect x="160" width="28" height="28" rx="14" fill="#002C5E"/>
<path d="M174 24.75C168.07 24.75 163.25 19.93 163.25 14C163.25 8.07 168.07 3.25 174 3.25C179.93 3.25 184.75 8.07 184.75 14C184.75 19.93 179.93 24.75 174 24.75ZM174 4.75C168.9 4.75 164.75 8.9 164.75 14C164.75 19.1 168.9 23.25 174 23.25C179.1 23.25 183.25 19.1 183.25 14C183.25 8.9 179.1 4.75 174 4.75Z" fill="#757575"/>
<path d="M175.26 18.28C175.07 18.28 174.88 18.21 174.73 18.06L171.2 14.53C170.91 14.24 170.91 13.76 171.2 13.47L174.73 9.93997C175.02 9.64997 175.5 9.64997 175.79 9.93997C176.08 10.23 176.08 10.71 175.79 11L172.79 14L175.79 17C176.08 17.29 176.08 17.77 175.79 18.06C175.65 18.21 175.46 18.28 175.26 18.28Z" fill="#757575"/>
</svg>
