<svg width="580" height="28" viewBox="0 0 580 28" fill="none" xmlns="http://www.w3.org/2000/svg">
<line x1="5" y1="14" x2="575" y2="14.0001" stroke="#757575" stroke-width="10" stroke-linecap="round"/>
<line x1="424" y1="14" x2="575" y2="14" stroke="#002C5E" stroke-width="10" stroke-linecap="round"/>
<rect x="405" width="28" height="28" rx="14" fill="#002C5E"/>
<path d="M419 24.75C413.07 24.75 408.25 19.93 408.25 14C408.25 8.07 413.07 3.25 419 3.25C424.93 3.25 429.75 8.07 429.75 14C429.75 19.93 424.93 24.75 419 24.75ZM419 4.75C413.9 4.75 409.75 8.9 409.75 14C409.75 19.1 413.9 23.25 419 23.25C424.1 23.25 428.25 19.1 428.25 14C428.25 8.9 424.1 4.75 419 4.75Z" fill="#757575"/>
<path d="M420.26 18.28C420.07 18.28 419.88 18.21 419.73 18.06L416.2 14.53C415.91 14.24 415.91 13.76 416.2 13.47L419.73 9.93997C420.02 9.64997 420.5 9.64997 420.79 9.93997C421.08 10.23 421.08 10.71 420.79 11L417.79 14L420.79 17C421.08 17.29 421.08 17.77 420.79 18.06C420.65 18.21 420.46 18.28 420.26 18.28Z" fill="#757575"/>
</svg>
