<svg width="127" height="24" viewBox="0 0 127 24" fill="none" xmlns="http://www.w3.org/2000/svg">
<mask id="path-1-inside-1_221_329" fill="white">
<path d="M121.894 20.7207C120.677 21.4033 119.332 21.8238 117.943 21.9554C116.555 22.087 115.154 21.9266 113.831 21.4847C112.509 21.0428 111.293 20.329 110.262 19.3893C109.232 18.4496 108.409 17.3047 107.847 16.0281L108.896 15.5666C109.393 16.6969 110.122 17.7106 111.034 18.5427C111.947 19.3747 113.023 20.0067 114.194 20.398C115.366 20.7893 116.606 20.9312 117.835 20.8147C119.065 20.6982 120.256 20.3259 121.333 19.7215L121.894 20.7207Z"/>
</mask>
<path d="M121.894 20.7207C120.677 21.4033 119.332 21.8238 117.943 21.9554C116.555 22.087 115.154 21.9266 113.831 21.4847C112.509 21.0428 111.293 20.329 110.262 19.3893C109.232 18.4496 108.409 17.3047 107.847 16.0281L108.896 15.5666C109.393 16.6969 110.122 17.7106 111.034 18.5427C111.947 19.3747 113.023 20.0067 114.194 20.398C115.366 20.7893 116.606 20.9312 117.835 20.8147C119.065 20.6982 120.256 20.3259 121.333 19.7215L121.894 20.7207Z" stroke="#D9D9D9" stroke-width="2" mask="url(#path-1-inside-1_221_329)"/>
<g opacity="0.8">
<mask id="path-2-inside-2_221_329" fill="white">
<path d="M107.388 14.7577C106.936 13.1847 106.878 11.5249 107.218 9.92408C107.558 8.32324 108.285 6.83025 109.336 5.57608L110.214 6.31212C109.284 7.42259 108.639 8.74452 108.339 10.1619C108.038 11.5793 108.09 13.0489 108.489 14.4417L107.388 14.7577Z"/>
</mask>
<path d="M107.388 14.7577C106.936 13.1847 106.878 11.5249 107.218 9.92408C107.558 8.32324 108.285 6.83025 109.336 5.57608L110.214 6.31212C109.284 7.42259 108.639 8.74452 108.339 10.1619C108.038 11.5793 108.09 13.0489 108.489 14.4417L107.388 14.7577Z" stroke="#D9D9D9" stroke-width="2" mask="url(#path-2-inside-2_221_329)"/>
</g>
<g opacity="0.6">
<mask id="path-3-inside-3_221_329" fill="white">
<path d="M110.541 4.36546C112.447 2.7531 114.887 1.91193 117.382 2.0073L117.338 3.15225C115.129 3.0678 112.969 3.81259 111.281 5.24021L110.541 4.36546Z"/>
</mask>
<path d="M110.541 4.36546C112.447 2.7531 114.887 1.91193 117.382 2.0073L117.338 3.15225C115.129 3.0678 112.969 3.81259 111.281 5.24021L110.541 4.36546Z" stroke="#D9D9D9" stroke-width="2" mask="url(#path-3-inside-3_221_329)"/>
</g>
<g opacity="0.4">
<mask id="path-4-inside-4_221_329" fill="white">
<path d="M118.662 2.139C120.803 2.49975 122.768 3.5475 124.261 5.12395L123.429 5.91179C122.107 4.51597 120.367 3.58827 118.471 3.26886L118.662 2.139Z"/>
</mask>
<path d="M118.662 2.139C120.803 2.49975 122.768 3.5475 124.261 5.12395L123.429 5.91179C122.107 4.51597 120.367 3.58827 118.471 3.26886L118.662 2.139Z" stroke="#D9D9D9" stroke-width="2" mask="url(#path-4-inside-4_221_329)"/>
</g>
<g opacity="0.2">
<mask id="path-5-inside-5_221_329" fill="white">
<path d="M125.074 6.09946C125.898 7.22736 126.477 8.51546 126.773 9.88074L125.653 10.1236C125.391 8.91471 124.878 7.7742 124.149 6.77553L125.074 6.09946Z"/>
</mask>
<path d="M125.074 6.09946C125.898 7.22736 126.477 8.51546 126.773 9.88074L125.653 10.1236C125.391 8.91471 124.878 7.7742 124.149 6.77553L125.074 6.09946Z" stroke="#D9D9D9" stroke-width="2" mask="url(#path-5-inside-5_221_329)"/>
</g>
<path d="M10.0975 15C9.75215 15 9.38348 14.9767 8.99148 14.93C9.05682 15.0513 9.09415 15.168 9.10348 15.28C9.12215 15.4667 9.13148 15.602 9.13148 15.686C9.13148 16.4047 8.85148 16.9553 8.29148 17.338C7.73148 17.73 6.91482 18.052 5.84148 18.304C5.38415 18.4067 4.97815 18.458 4.62348 18.458C3.56882 18.458 2.73815 18.1127 2.13148 17.422C1.53415 16.7313 1.23548 15.8027 1.23548 14.636C1.23548 13.7587 1.40815 12.816 1.75348 11.808L2.76148 12.214C2.44415 13.1287 2.28548 13.9453 2.28548 14.664C2.28548 15.4853 2.48615 16.1247 2.88748 16.582C3.29815 17.0393 3.87682 17.268 4.62348 17.268C4.93148 17.268 5.25815 17.226 5.60348 17.142C6.21015 17.0113 6.67682 16.89 7.00348 16.778C7.33015 16.666 7.58682 16.5167 7.77348 16.33C7.96948 16.1527 8.06748 15.9147 8.06748 15.616C8.06748 15.56 8.05815 15.4573 8.03948 15.308C7.97415 15 7.44215 14.6593 6.44348 14.286L5.72948 14.062L6.06548 12.928C6.20548 12.9747 6.36882 13.0213 6.55548 13.068C7.45148 13.3387 8.14682 13.5347 8.64148 13.656C9.13615 13.768 9.62148 13.824 10.0975 13.824V15ZM11.0594 13.824C12.0768 13.824 12.5854 13.4413 12.5854 12.676C12.5854 12.4707 12.5528 12.256 12.4874 12.032L11.9274 9.946L12.9634 9.652L13.5234 11.738C13.6074 12.0833 13.6494 12.4007 13.6494 12.69C13.6494 13.4273 13.4021 13.9967 12.9074 14.398C12.4128 14.7993 11.7968 15 11.0594 15H9.95344V13.824H11.0594ZM10.9194 7.72L11.8714 6.74L12.8374 7.72L11.8714 8.672L10.9194 7.72ZM18.0678 15C17.4611 15 16.9851 14.9113 16.6398 14.734C16.2944 14.5567 16.0424 14.272 15.8838 13.88C15.7251 13.4787 15.6318 12.928 15.6038 12.228L15.3518 5.788L16.4158 5.732L16.6678 12.228C16.6864 12.704 16.7284 13.0493 16.7938 13.264C16.8684 13.4787 16.9991 13.628 17.1858 13.712C17.3724 13.7867 17.6664 13.824 18.0678 13.824H18.2078V15H18.0678ZM27.8325 11.738C27.9259 12.074 27.9725 12.4007 27.9725 12.718C27.9725 13.194 27.8652 13.6047 27.6505 13.95C27.4359 14.2953 27.1512 14.5567 26.7965 14.734C26.4419 14.9113 26.0545 15 25.6345 15C25.2799 15 24.9579 14.9347 24.6685 14.804C24.3792 14.664 24.1365 14.4727 23.9405 14.23C23.5392 14.7433 22.9559 15 22.1905 15C21.8359 15 21.5139 14.93 21.2245 14.79C20.9352 14.65 20.6925 14.4587 20.4965 14.216C20.0859 14.7387 19.4979 15 18.7325 15H18.0745V13.824H18.7325C19.5725 13.824 19.9925 13.446 19.9925 12.69V10.954H20.9865V12.69V12.774C20.9865 13.0913 21.0892 13.348 21.2945 13.544C21.5092 13.7307 21.8079 13.824 22.1905 13.824C22.9932 13.824 23.4132 13.4833 23.4505 12.802V12.69V10.954H24.4445V12.69V12.802C24.4539 13.1193 24.5612 13.3713 24.7665 13.558C24.9719 13.7353 25.2612 13.824 25.6345 13.824C26.0079 13.824 26.3112 13.74 26.5445 13.572C26.7872 13.3947 26.9085 13.1053 26.9085 12.704C26.9085 12.4893 26.8759 12.2653 26.8105 12.032L26.2505 9.946L27.2725 9.652L27.8325 11.738ZM28.4473 17.366C29.0913 17.198 29.5767 17.0487 29.9033 16.918C30.2393 16.7873 30.51 16.6007 30.7153 16.358C30.9207 16.1247 31.0233 15.8073 31.0233 15.406C31.0233 15.3313 31.014 15.21 30.9953 15.042L30.4353 11.024L31.4853 10.856L32.0453 14.902C32.0733 15.1167 32.0873 15.308 32.0873 15.476C32.0873 16.1013 31.9287 16.61 31.6113 17.002C31.3033 17.394 30.8927 17.702 30.3793 17.926C29.8753 18.15 29.2127 18.374 28.3913 18.598L28.1113 17.45L28.4473 17.366ZM36.7051 17.366C37.3491 17.198 37.8345 17.0487 38.1611 16.918C38.4971 16.7873 38.7678 16.6007 38.9731 16.358C39.1785 16.1247 39.2811 15.8073 39.2811 15.406C39.2811 15.3313 39.2718 15.21 39.2531 15.042L38.6931 11.024L39.7431 10.856L40.3031 14.902C40.3311 15.1167 40.3451 15.308 40.3451 15.476C40.3451 16.1013 40.1865 16.61 39.8691 17.002C39.5611 17.394 39.1505 17.702 38.6371 17.926C38.1331 18.15 37.4705 18.374 36.6491 18.598L36.3691 17.45L36.7051 17.366ZM38.0771 8.588L39.0291 7.608L39.9951 8.588L39.0291 9.54L38.0771 8.588ZM47.1909 14.93C47.2096 15.1727 47.2189 15.3407 47.2189 15.434C47.2189 16.0967 47.0603 16.6147 46.7429 16.988C46.4256 17.3707 45.9496 17.674 45.3149 17.898C44.6896 18.122 43.7796 18.3553 42.5849 18.598L42.3749 17.436C43.4949 17.2027 44.2883 17.016 44.7549 16.876C45.2309 16.7453 45.5809 16.568 45.8049 16.344C46.0289 16.12 46.1409 15.798 46.1409 15.378C46.1409 15.238 46.1363 15.126 46.1269 15.042L46.1129 14.832C45.5156 14.944 44.9043 15 44.2789 15C43.8309 15 43.4296 14.8973 43.0749 14.692C42.7203 14.4773 42.4403 14.188 42.2349 13.824C42.0389 13.4507 41.9409 13.026 41.9409 12.55C41.9409 12.074 42.0436 11.626 42.2489 11.206C42.4543 10.786 42.7389 10.45 43.1029 10.198C43.4763 9.93667 43.9056 9.806 44.3909 9.806C45.0723 9.806 45.6463 10.072 46.1129 10.604C46.5796 11.1267 46.8596 11.8127 46.9529 12.662L47.1909 14.93ZM44.2789 13.824C44.9136 13.824 45.4829 13.768 45.9869 13.656L45.9029 12.816C45.8376 12.2373 45.6696 11.7893 45.3989 11.472C45.1283 11.1453 44.7876 10.982 44.3769 10.982C43.9476 10.982 43.6116 11.136 43.3689 11.444C43.1356 11.7427 43.0189 12.1067 43.0189 12.536C43.0189 12.928 43.1309 13.2407 43.3549 13.474C43.5789 13.7073 43.8869 13.824 44.2789 13.824ZM52.6539 13.824V15H52.5559C52.2852 15 52.0519 14.972 51.8559 14.916C51.8839 15.112 51.8979 15.3033 51.8979 15.49C51.8979 16.1153 51.7392 16.6193 51.4219 17.002C51.1139 17.394 50.7032 17.702 50.1899 17.926C49.6859 18.15 49.0232 18.374 48.2019 18.598L47.9219 17.45L48.2579 17.366C48.9019 17.198 49.3872 17.0487 49.7139 16.918C50.0499 16.7873 50.3205 16.6007 50.5259 16.358C50.7312 16.1247 50.8339 15.8073 50.8339 15.406C50.8339 15.3313 50.8245 15.21 50.8059 15.042L50.2459 11.024L51.2959 10.856L51.3659 11.36V11.402L51.4639 12.102C51.5385 12.606 51.6132 12.9793 51.6879 13.222C51.7719 13.4553 51.8745 13.614 51.9959 13.698C52.1265 13.782 52.3132 13.824 52.5559 13.824H52.6539ZM56.392 11.738C56.476 12.0833 56.518 12.4007 56.518 12.69C56.518 13.4273 56.2707 13.9967 55.776 14.398C55.2813 14.7993 54.6653 15 53.928 15H52.514V13.824H53.928C54.9453 13.824 55.454 13.4413 55.454 12.676C55.454 12.4707 55.4213 12.256 55.356 12.032L54.796 9.946L55.832 9.652L56.392 11.738ZM54.222 16.008L55.188 16.988L54.222 17.94L53.256 16.974L54.222 16.008ZM66.1068 18.318C65.6961 18.4207 65.2808 18.472 64.8608 18.472C64.1701 18.472 63.5728 18.3133 63.0688 17.996C62.5648 17.6787 62.1774 17.2307 61.9068 16.652C61.6361 16.0733 61.5008 15.4013 61.5008 14.636C61.5008 13.7773 61.6734 12.844 62.0188 11.836L63.0408 12.228C62.7234 13.1427 62.5648 13.9593 62.5648 14.678C62.5648 15.4993 62.7608 16.1433 63.1528 16.61C63.5541 17.0767 64.1188 17.31 64.8468 17.31C65.1828 17.31 65.5234 17.2633 65.8688 17.17L66.1488 17.1C66.7274 16.96 67.1661 16.8247 67.4648 16.694C67.7634 16.5633 68.0014 16.3487 68.1788 16.05C68.3561 15.7607 68.4354 15.3453 68.4168 14.804L68.0668 5.788L69.1168 5.732L69.4668 14.748C69.4948 15.5507 69.3688 16.1853 69.0888 16.652C68.8088 17.1187 68.4308 17.464 67.9548 17.688C67.4788 17.9213 66.8628 18.1313 66.1068 18.318ZM74.3138 15C73.7072 15 73.2312 14.9113 72.8858 14.734C72.5405 14.5567 72.2885 14.272 72.1298 13.88C71.9712 13.4787 71.8778 12.928 71.8498 12.228L71.5978 5.788L72.6618 5.732L72.9138 12.228C72.9325 12.704 72.9745 13.0493 73.0398 13.264C73.1145 13.4787 73.2452 13.628 73.4318 13.712C73.6185 13.7867 73.9125 13.824 74.3138 13.824H74.4538V15H74.3138ZM82.7346 12.06L82.5666 13.432L78.4646 14.594C77.8113 14.7713 77.1813 14.8833 76.5746 14.93C75.968 14.9767 75.24 15 74.3906 15H74.3206V13.824H74.3906C75.2213 13.824 75.9166 13.8053 76.4766 13.768C77.0366 13.7213 77.6106 13.614 78.1986 13.446L81.4886 12.564L78.6466 10.94C78.3946 10.7813 78.1146 10.702 77.8066 10.702C77.5173 10.702 77.2373 10.7813 76.9666 10.94C76.7053 11.0987 76.4906 11.3227 76.3226 11.612L76.0846 12.046L75.1606 11.472L75.4266 10.996C75.6973 10.52 76.038 10.1513 76.4486 9.89C76.8686 9.62867 77.312 9.498 77.7786 9.498C78.236 9.498 78.698 9.63333 79.1646 9.904L82.7346 12.06ZM87.3594 17.366C88.0034 17.198 88.4888 17.0487 88.8154 16.918C89.1514 16.7873 89.4221 16.6007 89.6274 16.358C89.8328 16.1247 89.9354 15.8073 89.9354 15.406C89.9354 15.3313 89.9261 15.21 89.9074 15.042L89.3474 11.024L90.3974 10.856L90.9574 14.902C90.9854 15.1167 90.9994 15.308 90.9994 15.476C90.9994 16.1013 90.8408 16.61 90.5234 17.002C90.2154 17.394 89.8048 17.702 89.2914 17.926C88.7874 18.15 88.1248 18.374 87.3034 18.598L87.0234 17.45L87.3594 17.366ZM94.9892 15C94.2986 15 93.7479 14.8647 93.3372 14.594C92.9359 14.314 92.7119 13.95 92.6652 13.502C92.6186 13.306 92.5952 12.998 92.5952 12.578H93.5752C93.5752 12.8673 93.5939 13.1007 93.6312 13.278C93.6686 13.474 93.7806 13.614 93.9672 13.698C94.1632 13.782 94.4479 13.824 94.8212 13.824H95.7732C96.7439 13.824 97.2292 13.5347 97.2292 12.956C97.2292 12.816 97.2106 12.6853 97.1732 12.564C97.0239 12.0787 96.7439 11.4813 96.3332 10.772C95.9226 10.0627 95.4699 9.358 94.9752 8.658L95.8292 7.958C96.3799 8.714 96.8792 9.48867 97.3272 10.282C97.7752 11.066 98.0692 11.738 98.2092 12.298C98.2652 12.522 98.2932 12.746 98.2932 12.97C98.2932 13.5673 98.0692 14.0573 97.6212 14.44C97.1826 14.8133 96.5199 15 95.6332 15H94.9892Z" fill="white"/>
</svg>
